<?xml version="1.0" encoding="utf-8"?>
<!-- Generator: Adobe Illustrator 16.0.0, SVG Export Plug-In . SVG Version: 6.00 Build 0)  -->
<!DOCTYPE svg PUBLIC "-//W3C//DTD SVG 1.1//EN" "http://www.w3.org/Graphics/SVG/1.1/DTD/svg11.dtd">
<svg version="1.1" id="Layer_1" xmlns="http://www.w3.org/2000/svg" xmlns:xlink="http://www.w3.org/1999/xlink" x="0px" y="0px"
	 width="310.32px" height="310.32px" viewBox="0 0 310.32 310.32" enable-background="new 0 0 310.32 310.32" xml:space="preserve">
<path fill="#E97324" d="M39.138,77.76h34.035c23.374,0,33.421,10.867,33.421,33.01v5.741c0,14.762-4.511,23.988-14.558,28.09v0.409
	c12.097,4.102,16.813,14.762,16.813,29.936v12.301c0,22.145-11.687,34.035-34.24,34.035H39.138V77.76z M70.508,136.194
	c8.406,0,13.532-3.69,13.532-15.172v-7.996c0-10.252-3.485-14.763-11.482-14.763H61.691v37.931H70.508z M74.608,200.78
	c7.586,0,11.687-3.486,11.687-14.148v-12.506c0-13.328-4.306-17.428-14.557-17.428H61.691v44.082H74.608z"/>
<path fill="#E97324" d="M121.972,77.76h34.035c23.374,0,33.421,10.867,33.421,33.01v5.741c0,14.762-4.511,23.988-14.558,28.09v0.409
	c12.097,4.102,16.813,14.762,16.813,29.936v12.301c0,22.145-11.687,34.035-34.24,34.035h-35.471V77.76z M153.342,136.194
	c8.406,0,13.532-3.69,13.532-15.172v-7.996c0-10.252-3.485-14.763-11.482-14.763h-10.866v37.931H153.342z M157.442,200.78
	c7.586,0,11.687-3.486,11.687-14.148v-12.506c0-13.328-4.306-17.428-14.557-17.428h-10.047v44.082H157.442z"/>
<path fill="#E97324" d="M252.373,220.872c-4.306,1.641-9.432,2.461-14.967,2.461c-22.144,0-34.241-13.121-34.241-36.086v-75.452
	c0-22.963,12.098-36.085,34.241-36.085s34.24,13.122,34.24,36.085v75.452c0,9.842-2.256,17.633-6.356,23.578
	c1.641,2.871,4.306,3.281,8.406,3.281h3.486v20.504h-5.946C262.83,234.61,255.039,231.534,252.373,220.872z M249.093,188.683V110.36
	c0-10.252-4.511-14.147-11.687-14.147c-7.177,0-11.688,3.896-11.688,14.147v78.322c0,10.252,4.511,14.146,11.688,14.146
	C244.582,202.829,249.093,198.935,249.093,188.683z"/>
</svg>
